<?xml version="1.0" encoding="utf-8"?>
<!-- Generator: Adobe Illustrator 24.0.0, SVG Export Plug-In . SVG Version: 6.00 Build 0)  -->
<svg version="1.1" id="Layer_1" xmlns="http://www.w3.org/2000/svg" xmlns:xlink="http://www.w3.org/1999/xlink" x="0px" y="0px"
	 viewBox="0 0 16 16" enable-background="new 0 0 16 16" xml:space="preserve">
<g id="XMLID_2_">
	<g>
		<polygon fill="#FDFDFE" points="14.747553,2.699218 15.149305,1.987466 16,3.263507 9.710892,14.12395 8.944087,14.12395 
			8.588211,13.541965 9.263917,12.364232 9.277024,12.38586 		"/>
		<polygon fill="#A9B0C7" points="15.075247,1.87605 15.149305,1.987466 14.747553,2.699218 14.214067,1.87605 		"/>
		<path fill="#FDFDFE" d="M7.997706,10.202761l3.553517-6.032196h-7.31348L7.997706,10.202761z M8.796625,11.484045
			l-0.040634,0.070127l0.507926,0.810061l-0.675706,1.177733L1.568345,2.060869
			c0.05833-0.084545,0.095031-0.154672,0.095031-0.154672V1.87605h12.502847v0.383402L8.796625,11.484045z"/>
		<polygon fill="#466DCA" points="0.860525,2.347929 8.044894,14.12395 6.554541,14.12395 0,3.233359 0.665875,2.029411 		"/>
		<path fill="#FDFDFE" d="M1.663376,1.87605v0.030148c0,0-0.036702,0.070127-0.095031,0.154672L1.455618,1.87605h0.057019H1.663376z
			"/>
		<path fill="#244AA0" d="M1.455618,1.87605l0.112727,0.18482C1.482489,2.186049,1.34879,2.342031,1.217057,2.342031
			c-0.133044,0-0.269365,0.003277-0.356531,0.005898l-0.19465-0.318519L0.751075,1.87605H1.455618z"/>
	</g>
</g>
</svg>
