<?xml version="1.0" encoding="utf-8"?>
<!-- Generator: Adobe Illustrator 24.0.0, SVG Export Plug-In . SVG Version: 6.00 Build 0)  -->
<svg version="1.1" id="Layer_1" xmlns="http://www.w3.org/2000/svg" xmlns:xlink="http://www.w3.org/1999/xlink" x="0px" y="0px"
	 viewBox="0 0 3000 686.588379" enable-background="new 0 0 3000 686.588379" xml:space="preserve">
<g>
	<g>
		<g id="XMLID_15_">
			<g>
				<polygon fill="#FDFDFE" points="829.927612,46.144855 852.536499,6.245721 900.409851,77.777596 546.486389,686.588379 
					503.334015,686.588379 483.306885,653.963684 521.332642,587.942749 522.070251,589.155151 				"/>
				<polygon fill="#A9B0C7" points="848.368835,0 852.536499,6.245721 829.927612,46.144855 799.905334,0 				"/>
				<path fill="#FDFDFE" d="M450.075836,466.775787l199.976349-338.150696H238.481552L450.075836,466.775787z
					 M495.035492,538.601563l-2.286713,3.931152l28.583862,45.410034l-38.025757,66.020935L88.259567,10.360548
					c3.282532-4.739399,5.347946-8.670529,5.347946-8.670529V0h703.605469v21.492626L495.035492,538.601563z"/>
				<polygon fill="#466DCA" points="48.426582,26.452465 452.731384,686.588379 368.860809,686.588379 0,76.08757 
					37.472511,8.597051 				"/>
				<path fill="#FDFDFE" d="M93.607513,0v1.690019c0,0-2.065414,3.93113-5.347946,8.670529L81.915794,0h3.208771H93.607513z"/>
				<path fill="#244AA0" d="M81.915794,0l6.343773,10.360548C83.427971,17.3778,75.903961,26.121809,68.490601,26.121809
					c-7.487122,0-15.158661,0.183697-20.064018,0.330656L37.472511,8.597051L42.267223,0H81.915794z"/>
			</g>
		</g>
		<g>
			<g>
				<g>
					<path fill="#FDFDFE" d="M1229.982178,164.136826c-22.055542-19.912766-53.848145-29.869263-95.414673-29.869263
						c-23.235962,0-45.291504,2.975891-66.056274,8.964447c-16.191406,4.702774-30.575439,10.985321-43.115601,18.884186
						l26.850342,47.17366c8.114136-5.106857,17.334717-9.295212,27.625122-12.601639
						c15.342896-4.959976,30.907349-7.421463,46.766846-7.421463c23.272705,0,40.79187,5.290512,52.594238,15.871506
						c11.802246,10.581009,17.703491,25.754456,17.703491,45.52034v4.224915h-72.953491
						c-40.496704,0-70.187012,7.67865-89.033813,22.998993c-18.847107,15.357086-28.289001,35.710693-28.289001,61.097839
						c0,16.238831,4.315369,30.78775,12.94574,43.646606c8.630615,12.895599,20.87561,22.925415,36.734985,30.162994
						c15.859375,7.237823,34.37439,10.838226,55.507935,10.838226s39.205933-3.269653,54.180176-9.772644
						c14.974243-6.539734,26.481567-15.945038,34.595703-28.289459v34.388123h62.368042V254.33255
						C1262.991943,214.139496,1251.964233,184.086365,1229.982178,164.136826z M1196.935669,331.595673
						c-5.274048,14.108093-14.34729,24.946075-27.219116,32.514404c-12.871948,7.605103-27.588013,11.389374-44.148438,11.389374
						c-16.891968,0-30.095947-3.527069-39.611572-10.580994c-9.515503-7.053925-14.27356-16.56955-14.27356-28.583466
						c0-25.019623,19.031494-37.547699,57.057251-37.547699h68.195435V331.595673z"/>
				</g>
				<g>
					<path fill="#FDFDFE" d="M2644.010742,164.136826c-22.05542-19.912766-53.848145-29.869263-95.414551-29.869263
						c-23.23584,0-45.291504,2.975891-66.056396,8.964447c-16.191406,4.702774-30.575439,10.985321-43.115479,18.884186
						l26.850342,47.17366c8.114014-5.106857,17.334717-9.295212,27.625-12.601639
						c15.343018-4.959976,30.907471-7.421463,46.766846-7.421463c23.272705,0,40.791992,5.290512,52.594482,15.871506
						c11.802002,10.581009,17.703369,25.754456,17.703369,45.52034v4.224915h-72.953369
						c-40.496826,0-70.187256,7.67865-89.033936,22.998993c-18.847168,15.357086-28.289063,35.710693-28.289063,61.097839
						c0,16.238831,4.31543,30.78775,12.945801,43.646606c8.630615,12.895599,20.875488,22.925415,36.734863,30.162994
						c15.859375,7.237823,34.374512,10.838226,55.508057,10.838226s39.206055-3.269653,54.180176-9.772644
						c14.974365-6.539734,26.481445-15.945038,34.595703-28.289459v34.388123h62.368164V254.33255
						C2677.020752,214.139496,2665.99292,184.086365,2644.010742,164.136826z M2610.964355,331.595673
						c-5.27417,14.108093-14.347168,24.946075-27.219238,32.514404c-12.871826,7.605103-27.587891,11.389374-44.148193,11.389374
						c-16.89209,0-30.095947-3.527069-39.611816-10.580994c-9.515381-7.053925-14.273438-16.56955-14.273438-28.583466
						c0-25.019623,19.031494-37.547699,57.057129-37.547699h68.195557V331.595673z"/>
				</g>
				<g>
					<path fill="#FDFDFE" d="M1487.605835,134.267563v62.93483c-5.643066-1.065353-10.73291-1.579773-15.306274-1.579773
						c-25.743774,0-45.807861,7.49501-60.265747,22.484589c-14.458008,14.989792-21.649902,36.592651-21.649902,64.808594
						v137.038391h-66.093384V137.427322h62.921387v41.258438C1406.206421,149.0737,1439.695679,134.267563,1487.605835,134.267563z"
						/>
				</g>
				<g>
					<path fill="#FDFDFE" d="M1768.64978,392.362793c-6.52832,5.327271-13.683472,9.993256-21.539429,14.071289
						c-22.092529,11.462708-47.615112,17.194092-76.604858,17.194092c-30.833618,0-58.532349-6.135437-83.022095-18.516663
						c-24.526855-12.344421-43.668823-29.538513-57.425903-51.582214c-13.720337-22.007172-20.61731-46.990021-20.61731-74.838654
						c0-27.848389,6.896973-52.72113,20.61731-74.617966c13.75708-21.859848,32.78833-38.943817,57.130859-51.288254
						c24.342285-12.344421,52.114746-18.516861,83.317139-18.516861c29.321533,0,55.065674,5.621246,77.195068,16.900314
						c7.007568,3.600403,13.461914,7.678436,19.363281,12.270874c-12.097534,17.267639-27.55127,39.348129-35.481079,50.737289
						c-5.864136-5.69458-12.355591-10.397125-19.547607-14.071075c-12.835083-6.502975-26.850342-9.772842-42.082764-9.772842
						c-26.002075,0-47.578369,8.009186-64.654907,24.064346c-17.076538,16.055389-25.633301,37.47438-25.633301,64.294174
						c0,26.783264,8.446167,48.239044,25.375122,64.25766c16.892212,16.055145,38.505127,24.101105,64.913086,24.101105
						c15.232422,0,29.247681-3.269867,42.082764-9.809601c7.044678-3.600403,13.462158-8.156067,19.21582-13.777344
						C1738.774902,353.382202,1754.118042,373.405273,1768.64978,392.362793z"/>
				</g>
				<g>
					<path fill="#FDFDFE" d="M2062.63916,280.27066c0-28.914001-6.085449-54.41124-18.256836-76.454971
						c-12.134277-22.043716-29.06311-39.127686-50.713257-51.325241c-21.686646-12.160782-46.250488-18.222885-73.727905-18.222885
						c-27.846191,0-52.852295,6.17244-75.055542,18.516861c-20.064087,11.168747-36.181641,26.268631-48.279175,45.336456
						c0.332031,0.587967,0.663818,1.138916,0.958984,1.726883l-3.098022,1.726654h-0.036865
						c-0.553345,0.918488-1.069824,1.836975-1.622925,2.792236c-12.503174,22.043716-18.736328,46.806122-18.736328,74.32399
						c0,27.848633,6.417603,52.831482,19.289429,74.838654c0.479492,0.84494,0.958984,1.653107,1.475464,2.461487h0.036865
						l2.692383,1.506226c-0.258179,0.477631-0.553101,0.992035-0.848267,1.469666
						c12.576782,19.471893,29.727173,34.82901,51.34021,46.144836c23.604858,12.381226,50.897705,18.516663,81.915894,18.516663
						c24.30542,0,46.139893-3.857605,65.539917-11.609619c19.363159-7.751984,35.407227-19.251465,48.094727-34.388123
						l-35.407227-40.744263c-20.100708,20.463959-45.660156,30.677429-76.641479,30.677429
						c-24.305664,0-44.664551-6.098663-61.040283-18.25943c-16.375854-12.160797-26.518433-28.656799-30.391113-49.451508
						h221.441772C2062.270508,291.365845,2062.63916,284.863098,2062.63916,280.27066z M1839.61145,255.949097
						c3.134888-20.831467,12.060303-37.474365,26.665894-50.00267c14.605469-12.528076,32.493408-18.773849,53.663818-18.773849
						c21.465576,0,39.427246,6.319321,53.885376,19.031052c14.457764,12.71196,23.088135,29.281525,25.891235,49.745468H1839.61145z
						"/>
				</g>
				<g>
					<path fill="#FDFDFE" d="M2380.786621,258.04306v161.911133h-66.056152V266.529877
						c0-24.688858-5.827637-43.315826-17.445557-55.843903c-11.61792-12.491531-28.214844-18.774078-49.68042-18.774078
						c-24.305664,0-43.52124,7.3479-57.610352,21.970398c-14.089111,14.622253-21.133789,35.710709-21.133789,63.228577v142.843323
						h-66.056152V137.427322h62.884277v36.519119c10.917236-13.079269,24.637451-22.925659,41.234619-29.648834
						c16.523438-6.68663,35.2229-10.030045,55.987305-10.030045c35.591797,0,64.138672,10.397354,85.641113,31.192047
						C2370.01709,186.290863,2380.786621,217.151932,2380.786621,258.04306z"/>
				</g>
				<g>
					<g>
						<path fill="#A9B0C7" d="M1329.601318,670.439392c-9.368286-2.70166-16.780762-6.278748-22.239258-10.742004
							l8.374146-17.788574c5.334351,3.993286,11.880615,7.251038,19.635254,9.773315
							c7.752808,2.525818,15.539917,3.785156,23.357666,3.785156c9.676147,0,16.903198-1.463806,21.680908-4.402283
							c4.774292-2.931274,7.165771-6.806091,7.165771-11.624573c0-3.519714-1.334351-6.425842-4.001587-8.714905
							c-2.668823-2.292603-6.049194-4.079346-10.142578-5.374573c-4.095215-1.288025-9.678101-2.755493-16.750244-4.402283
							c-9.928345-2.228088-17.960327-4.459717-24.101318-6.691345c-6.141113-2.228027-11.415894-5.726196-15.819092-10.480103
							c-4.40686-4.753906-6.607544-11.183289-6.607544-19.284668c0-6.809753,1.953979-13.002319,5.861938-18.581421
							c3.90979-5.575562,9.800537-10.006531,17.681274-13.29657c7.877075-3.286499,17.522705-4.929688,28.94043-4.929688
							c7.938354,0,15.75415,0.940002,23.449463,2.816467c7.69165,1.880005,14.329712,4.578064,19.914307,8.101318
							l-7.630371,17.788513c-5.708862-3.171631-11.664429-5.5755-17.866699-7.22229
							c-6.205933-1.64325-12.222778-2.464844-18.054077-2.464844c-9.555542,0-16.656494,1.528381-21.308228,4.578064
							c-4.653442,3.056824-6.980225,7.107544-6.980225,12.152039c0,3.523254,1.332642,6.404297,4.001587,8.632385
							c2.667114,2.231628,6.049194,3.993225,10.142578,5.28125c4.095337,1.295227,9.678101,2.762695,16.750244,4.405884
							c9.677979,2.113281,17.616333,4.312622,23.822266,6.601685c6.202271,2.292603,11.50769,5.78717,15.91272,10.480042
							c4.403198,4.696533,6.607544,11.039795,6.607544,19.022766c0,6.809753-1.953979,12.973633-5.86377,18.49176
							c-3.907959,5.518127-9.834717,9.924011-17.773071,13.206848c-7.942017,3.286499-17.619995,4.933289-29.032227,4.933289
							C1348.678223,674.490051,1338.969604,673.137451,1329.601318,670.439392z"/>
					</g>
					<g>
						<path fill="#A9B0C7" d="M1518.223877,629.22583v43.502625h-24.193359v-43.151062l-51.181519-80.13092h25.868164
							l38.153809,60.053345l38.52478-60.053345h23.822266L1518.223877,629.22583z"/>
					</g>
					<g>
						<path fill="#A9B0C7" d="M1622.910034,670.439392c-9.368286-2.70166-16.780762-6.278748-22.241089-10.742004
							l8.377808-17.788574c5.330566,3.993286,11.878662,7.251038,19.633301,9.773315
							c7.751099,2.525818,15.541748,3.785156,23.357666,3.785156c9.678101,0,16.90332-1.463806,21.682861-4.402283
							c4.772339-2.931274,7.16394-6.806091,7.16394-11.624573c0-3.519714-1.336304-6.425842-4.001587-8.714905
							c-2.668945-2.292603-6.047363-4.079346-10.1427-5.374573c-4.095215-1.288025-9.677979-2.755493-16.751953-4.402283
							c-9.926514-2.228088-17.958496-4.459717-24.099609-6.691345c-6.140991-2.228027-11.417603-5.726196-15.819092-10.480103
							c-4.404907-4.753906-6.605713-11.183289-6.605713-19.284668c0-6.809753,1.952271-13.002319,5.860229-18.581421
							c3.907959-5.575562,9.800415-10.006531,17.681152-13.29657c7.877197-3.286499,17.522705-4.929688,28.94043-4.929688
							c7.938354,0,15.754272,0.940002,23.451294,2.816467c7.689819,1.880005,14.328003,4.578064,19.910767,8.101318
							l-7.628662,17.788513c-5.708862-3.171631-11.666138-5.5755-17.868408-7.22229
							c-6.205933-1.64325-12.220947-2.464844-18.052246-2.464844c-9.555542,0-16.654663,1.528381-21.308228,4.578064
							c-4.653564,3.056824-6.980347,7.107544-6.980347,12.152039c0,3.523254,1.332764,6.404297,4.001587,8.632385
							c2.665405,2.231628,6.047485,3.993225,10.1427,5.28125c4.095215,1.295227,9.678101,2.762695,16.751953,4.405884
							c9.678101,2.113281,17.616455,4.312622,23.822266,6.601685c6.202271,2.292603,11.50415,5.78717,15.90918,10.480042
							c4.405029,4.696533,6.609253,11.039795,6.609253,19.022766c0,6.809753-1.955688,12.973633-5.863647,18.49176
							s-9.833008,9.924011-17.771362,13.206848c-7.941895,3.286499-17.619995,4.933289-29.034058,4.933289
							C1641.98877,674.490051,1632.27832,673.137451,1622.910034,670.439392z"/>
					</g>
					<g>
						<path fill="#A9B0C7" d="M1782.685669,568.817261h-43.174683v-19.370789h110.546265v19.370789h-43.174683v103.911194
							h-24.196899V568.817261z"/>
					</g>
					<g>
						<path fill="#A9B0C7" d="M1995.407837,653.529846v19.198608h-97.709595V549.446472h95.101807v19.195007h-70.908569v32.053772
							h62.905396v18.843384h-62.905396v33.991211H1995.407837z"/>
					</g>
					<g>
						<path fill="#A9B0C7" d="M2171.467285,672.728455l-0.1875-81.720398l-42.803711,67.63092h-10.794434l-42.807373-66.572449
							v80.661926h-23.07666V549.446472h19.914307l51.739746,81.716797l50.806885-81.716797h19.914307l0.183838,123.281982
							H2171.467285z"/>
					</g>
					<g>
						<path fill="#A9B0C7" d="M2270.196045,670.439392c-9.368408-2.70166-16.780762-6.278748-22.241211-10.742004l8.37793-17.788574
							c5.330566,3.993286,11.878662,7.251038,19.633301,9.773315c7.751221,2.525818,15.541748,3.785156,23.357666,3.785156
							c9.677979,0,16.90332-1.463806,21.682861-4.402283c4.772461-2.931274,7.164063-6.806091,7.164063-11.624573
							c0-3.519714-1.336426-6.425842-4.001709-8.714905c-2.668945-2.292603-6.047363-4.079346-10.142578-5.374573
							c-4.095215-1.288025-9.678223-2.755493-16.751953-4.402283c-9.926758-2.228088-17.95874-4.459717-24.099609-6.691345
							c-6.141113-2.228027-11.417725-5.726196-15.819092-10.480103c-4.405029-4.753906-6.605713-11.183289-6.605713-19.284668
							c0-6.809753,1.952148-13.002319,5.860107-18.581421c3.907959-5.575562,9.800537-10.006531,17.681152-13.29657
							c7.877197-3.286499,17.522705-4.929688,28.94043-4.929688c7.938477,0,15.75415,0.940002,23.451416,2.816467
							c7.689697,1.880005,14.327881,4.578064,19.910645,8.101318l-7.628662,17.788513
							c-5.70874-3.171631-11.66626-5.5755-17.868408-7.22229c-6.206055-1.64325-12.220947-2.464844-18.052246-2.464844
							c-9.555664,0-16.654785,1.528381-21.30835,4.578064c-4.65332,3.056824-6.980225,7.107544-6.980225,12.152039
							c0,3.523254,1.332764,6.404297,4.001709,8.632385c2.665283,2.231628,6.047363,3.993225,10.142578,5.28125
							c4.095215,1.295227,9.677979,2.762695,16.751953,4.405884c9.677979,2.113281,17.616455,4.312622,23.822266,6.601685
							c6.202393,2.292603,11.50415,5.78717,15.90918,10.480042c4.405029,4.696533,6.609375,11.039795,6.609375,19.022766
							c0,6.809753-1.955811,12.973633-5.86377,18.49176s-9.833008,9.924011-17.77124,13.206848
							c-7.942139,3.286499-17.620117,4.933289-29.03418,4.933289
							C2289.274658,674.490051,2279.564209,673.137451,2270.196045,670.439392z"/>
					</g>
				</g>
				<g>
					<rect x="2420.687988" y="614.394409" fill="#A9B0C7" width="579.312012" height="17.691139"/>
				</g>
			</g>
			<g>
				<rect x="655.00177" y="614.394409" fill="#A9B0C7" width="579.312012" height="17.691139"/>
			</g>
		</g>
	</g>
</g>
</svg>
