<?xml version="1.0" encoding="utf-8"?>
<!-- Generator: Adobe Illustrator 24.0.0, SVG Export Plug-In . SVG Version: 6.00 Build 0)  -->
<svg version="1.1" id="Layer_1" xmlns="http://www.w3.org/2000/svg" xmlns:xlink="http://www.w3.org/1999/xlink" x="0px" y="0px"
	 viewBox="0 0 3000 686.588379" enable-background="new 0 0 3000 686.588379" xml:space="preserve">
<g>
	<path d="M452.731415,686.588562L48.426468,26.452339c4.905518-0.146973,12.577148-0.330566,20.064209-0.330566
		c7.41333,0,14.937256-8.744141,19.768799-15.76123l395.047363,643.603027l20.027344,32.625h43.152313l353.92334-608.811035
		L852.53656,6.245797l-4.167725-6.245605h-48.463379l30.022217,46.144531L522.070251,589.154968l-0.737549-1.212402
		l-28.583954-45.409668l2.286621-3.931152L797.213074,21.492867V0.000192H93.60762h-8.48291h-3.208984H42.267288l-4.794678,8.59668
		L-0.000044,76.087593l368.86084,610.500977H452.731415z M650.052185,128.625198L450.075897,466.775574L238.481644,128.625198
		H650.052185z"/>
	<path d="M1123.982178,254.883499c-40.496582,0-70.187012,7.678696-89.033691,22.999008
		c-18.847229,15.356934-28.289124,35.710938-28.289124,61.097656c0,16.239258,4.31543,30.788086,12.945801,43.646973
		c8.630432,12.895508,20.875549,22.925293,36.734924,30.162598c15.859375,7.238281,34.374512,10.838379,55.508057,10.838379
		s39.205811-3.269531,54.180176-9.772461c14.974365-6.540039,26.481445-15.945313,34.595703-28.289551v34.388184h62.36792
		V254.332718c0-40.193359-11.027832-70.246094-33.009766-90.195801c-22.055664-19.912598-53.848145-29.869141-95.414551-29.869141
		c-23.23584,0-45.291504,2.975586-66.056396,8.964355c-16.191406,4.702637-30.575439,10.985352-43.115479,18.883789
		l26.850098,47.173828c8.114258-5.106934,17.334961-9.294922,27.625244-12.601563
		c15.343018-4.959961,30.907471-7.421387,46.766846-7.421387c23.272705,0,40.791992,5.290527,52.594238,15.871582
		s17.703613,25.754395,17.703613,45.52002v4.225098H1123.982178z M1196.935791,331.595398
		c-5.27417,14.108398-14.347168,24.946289-27.219238,32.514648c-12.87207,7.60498-27.587891,11.389648-44.148438,11.389648
		c-16.891846,0-30.095703-3.527344-39.611572-10.581055c-9.515381-7.054199-14.273438-16.569824-14.273438-28.583496
		c0-25.02002,19.031494-37.547852,57.057129-37.547852h68.195557V331.595398z"/>
	<path d="M2538.010986,254.883499c-40.496826,0-70.187012,7.678696-89.033936,22.999008
		c-18.847168,15.356934-28.289063,35.710938-28.289063,61.097656c0,16.239258,4.31543,30.788086,12.945801,43.646973
		c8.630615,12.895508,20.875488,22.925293,36.734863,30.162598c15.859375,7.238281,34.374512,10.838379,55.508057,10.838379
		s39.206055-3.269531,54.180176-9.772461c14.974365-6.540039,26.481689-15.945313,34.595703-28.289551v34.388184h62.368164
		V254.332718c0-40.193359-11.027832-70.246094-33.009766-90.195801c-22.055664-19.912598-53.848389-29.869141-95.414795-29.869141
		c-23.23584,0-45.291504,2.975586-66.056396,8.964355c-16.191406,4.702637-30.575439,10.985352-43.115479,18.883789
		l26.850342,47.173828c8.114258-5.106934,17.334717-9.294922,27.625-12.601563
		c15.343018-4.959961,30.907471-7.421387,46.766846-7.421387c23.272949,0,40.791992,5.290527,52.594482,15.871582
		c11.802002,10.581055,17.703369,25.754395,17.703369,45.52002v4.225098H2538.010986z M2610.964355,331.595398
		c-5.27417,14.108398-14.347168,24.946289-27.219238,32.514648c-12.871826,7.60498-27.587891,11.389648-44.148193,11.389648
		c-16.89209,0-30.095947-3.527344-39.611816-10.581055c-9.515381-7.054199-14.273438-16.569824-14.273438-28.583496
		c0-25.02002,19.031494-37.547852,57.057129-37.547852h68.195557V331.595398z"/>
	<path d="M1390.384033,282.91571c0-28.215805,7.191895-49.818832,21.649902-64.808578
		c14.457764-14.989258,34.521973-22.484375,60.265625-22.484375c4.573486,0,9.663086,0.51416,15.306396,1.57959v-62.93457
		c-47.910156,0-81.399658,14.806152-100.394043,44.417969v-41.258301h-62.921387v282.526855h66.093506V282.91571z"/>
	<path d="M1587.483643,405.111511c24.489502,12.381348,52.188232,18.516602,83.021973,18.516602
		c28.989746,0,54.512207-5.731445,76.604736-17.193848c7.855957-4.078125,15.01123-8.744141,21.539429-14.071289
		c-14.531616-18.95752-29.874878-38.980957-37.398804-48.900391c-5.753662,5.621094-12.171143,10.176758-19.21582,13.777344
		c-12.834961,6.539551-26.85022,9.80957-42.082764,9.80957c-26.407837,0-48.020996-8.045898-64.913086-24.101074
		c-16.928955-16.018555-25.375-37.474609-25.375-64.257813c0-26.819809,8.556641-48.238754,25.633301-64.29393
		c17.076416-16.055176,38.652832-24.064453,64.654785-24.064453c15.232544,0,29.247803,3.27002,42.082764,9.772949
		c7.192139,3.673828,13.683472,8.376465,19.547607,14.070801c7.929932-11.38916,23.383545-33.469727,35.481079-50.737305
		c-5.901245-4.592285-12.355713-8.67041-19.363159-12.270996c-22.129517-11.278809-47.873535-16.899902-77.195068-16.899902
		c-31.202393,0-58.975098,6.172363-83.317383,18.516602s-43.373535,29.428223-57.130615,51.288574
		c-13.720459,21.896484-20.617432,46.769531-20.617432,74.617661c0,27.848633,6.896973,52.831543,20.617432,74.838867
		C1543.814697,375.572937,1562.956543,392.767273,1587.483643,405.111511z"/>
	<path d="M1794.836182,355.990906h0.036865l2.692383,1.505859c-0.258179,0.478027-0.553101,0.992188-0.848145,1.469727
		c12.57666,19.472168,29.727173,34.829102,51.340088,46.14502c23.60498,12.381348,50.897705,18.516602,81.916016,18.516602
		c24.305298,0,46.139893-3.857422,65.539795-11.609375c19.363281-7.751953,35.407227-19.251465,48.094727-34.388184
		l-35.407227-40.744141c-20.100586,20.463867-45.660156,30.677246-76.641357,30.677246
		c-24.305664,0-44.664551-6.098633-61.040405-18.259277c-16.375854-12.161133-26.518433-28.657227-30.390991-49.45166h221.44165
		c0.700928-8.486816,1.06958-14.989746,1.06958-19.582031c0-28.914047-6.085449-54.411118-18.256836-76.455063
		c-12.134155-22.043457-29.062988-39.127441-50.713257-51.325195c-21.686646-12.160645-46.250366-18.222656-73.727905-18.222656
		c-27.846191,0-52.852295,6.172363-75.055542,18.516602c-20.064087,11.168945-36.181519,26.268555-48.279175,45.336426
		c0.332031,0.587891,0.663818,1.13916,0.958984,1.727051l-3.0979,1.726563h-0.036987
		c-0.553345,0.918457-1.069702,1.836914-1.622803,2.79248c-12.503296,22.043457-18.736328,46.805664-18.736328,74.323715
		c0,27.848633,6.41748,52.831543,19.289429,74.838867C1793.840332,354.374207,1794.319824,355.182312,1794.836182,355.990906z
		 M1866.277344,205.946487c14.605469-12.52832,32.493408-18.773926,53.663818-18.773926
		c21.465576,0,39.427246,6.319336,53.885376,19.03125c14.457886,12.711914,23.088257,29.28125,25.891235,49.745117H1839.61145
		C1842.746338,235.117874,1851.671875,218.474808,1866.277344,205.946487z"/>
	<path d="M2168.860352,277.111023c0-27.518051,7.044678-48.60643,21.133789-63.2285
		c14.089111-14.622559,33.304688-21.970703,57.610352-21.970703c21.465576,0,38.062744,6.282715,49.68042,18.774414
		c11.618164,12.527832,17.445557,31.154785,17.445557,55.843735v153.424316h66.056152V258.043152
		c0-40.891098-10.769531-71.752426-32.235107-92.583481c-21.502441-20.794922-50.049316-31.191895-85.641113-31.191895
		c-20.764404,0-39.463867,3.343262-55.987305,10.029785c-16.597168,6.723145-30.317139,16.569824-41.234619,29.648926v-36.519043
		h-62.884277v282.526855h66.056152V277.111023z"/>
	<path d="M1380.410156,651.065125c-4.777832,2.938477-12.004883,4.402344-21.680908,4.402344
		c-7.817871,0-15.60498-1.259766-23.35791-3.785156c-7.754395-2.522461-14.300781-5.780273-19.63501-9.773438l-8.374268,17.788574
		c5.458496,4.463379,12.871094,8.040527,22.239258,10.741699c9.368408,2.698242,19.077148,4.050781,29.12793,4.050781
		c11.412109,0,21.090332-1.646484,29.032227-4.933105c7.938232-3.282715,13.86499-7.688965,17.772949-13.207031
		c3.909668-5.518066,5.86377-11.682129,5.86377-18.491699c0-7.98291-2.204346-14.326172-6.607422-19.022461
		c-4.405029-4.693359-9.710449-8.1875-15.912842-10.480469c-6.205811-2.289063-14.144287-4.488281-23.822266-6.601563
		c-7.072021-1.643066-12.655029-3.110352-16.750244-4.405762c-4.093262-1.288086-7.475342-3.049805-10.142578-5.28125
		c-2.668945-2.228027-4.001465-5.109375-4.001465-8.632324c0-5.044434,2.32666-9.095215,6.980225-12.152344
		c4.651611-3.049316,11.752686-4.578125,21.308105-4.578125c5.831299,0,11.848145,0.821777,18.053955,2.464844
		c6.202393,1.646973,12.157959,4.050781,17.866699,7.222656l7.630615-17.788574
		c-5.584717-3.523438-12.2229-6.221191-19.914307-8.101563c-7.695313-1.876465-15.51123-2.816406-23.449707-2.816406
		c-11.41748,0-21.063232,1.643066-28.94043,4.929688c-7.880615,3.290039-13.771484,7.721191-17.681152,13.296387
		c-3.907959,5.579102-5.861816,11.771973-5.861816,18.581543c0,8.101563,2.200684,14.530762,6.607422,19.284668
		c4.40332,4.753906,9.677979,8.251953,15.819092,10.480469c6.141113,2.231445,14.173096,4.462891,24.101318,6.691406
		c7.072266,1.646484,12.655029,3.11377,16.750244,4.401855c4.093506,1.29541,7.473877,3.082031,10.142822,5.374512
		c2.666992,2.289063,4.001465,5.195313,4.001465,8.714844C1387.575928,644.258972,1385.184326,648.133484,1380.410156,651.065125z"
		/>
	<polygon points="1442.849121,549.446472 1494.030518,629.577332 1494.030518,672.72821 1518.223877,672.72821 
		1518.223877,629.225769 1569.218018,549.446472 1545.395752,549.446472 1506.871094,609.499695 1468.717041,549.446472 	"/>
	<path d="M1673.720703,651.065125c-4.779663,2.938477-12.004883,4.402344-21.682861,4.402344
		c-7.815918,0-15.606689-1.259766-23.357666-3.785156c-7.754639-2.522461-14.302734-5.780273-19.633545-9.773438
		l-8.377686,17.788574c5.460449,4.463379,12.872803,8.040527,22.241211,10.741699
		c9.368164,2.698242,19.078613,4.050781,29.127686,4.050781c11.414063,0,21.092041-1.646484,29.034058-4.933105
		c7.938354-3.282715,13.863281-7.688965,17.77124-13.207031s5.863647-11.682129,5.863647-18.491699
		c0-7.98291-2.204224-14.326172-6.609131-19.022461c-4.405029-4.693359-9.706909-8.1875-15.90918-10.480469
		c-6.205933-2.289063-14.144287-4.488281-23.822266-6.601563c-7.073975-1.643066-12.656738-3.110352-16.751953-4.405762
		c-4.095215-1.288086-7.477295-3.049805-10.142822-5.28125c-2.668945-2.228027-4.001465-5.109375-4.001465-8.632324
		c0-5.044434,2.32666-9.095215,6.980225-12.152344c4.653564-3.049316,11.752686-4.578125,21.30835-4.578125
		c5.831299,0,11.846191,0.821777,18.052124,2.464844c6.202271,1.646973,12.159668,4.050781,17.86853,7.222656l7.628662-17.788574
		c-5.582886-3.523438-12.220947-6.221191-19.910889-8.101563c-7.697021-1.876465-15.512939-2.816406-23.451172-2.816406
		c-11.417725,0-21.063232,1.643066-28.94043,4.929688c-7.880859,3.290039-13.773193,7.721191-17.681396,13.296387
		c-3.907715,5.579102-5.859863,11.771973-5.859863,18.581543c0,8.101563,2.200684,14.530762,6.605469,19.284668
		c4.401367,4.753906,9.678223,8.251953,15.819336,10.480469c6.140869,2.231445,14.172852,4.462891,24.099487,6.691406
		c7.073853,1.646484,12.656616,3.11377,16.751953,4.401855c4.095215,1.29541,7.473755,3.082031,10.1427,5.374512
		c2.665283,2.289063,4.001465,5.195313,4.001465,8.714844C1680.884521,644.258972,1678.49292,648.133484,1673.720703,651.065125z"/>
	<polygon points="1806.882568,672.72821 1806.882568,568.817078 1850.057373,568.817078 1850.057373,549.446472 
		1739.510986,549.446472 1739.510986,568.817078 1782.685791,568.817078 1782.685791,672.72821 	"/>
	<polygon points="1992.800171,568.641296 1992.800171,549.446472 1897.698242,549.446472 1897.698242,672.72821 
		1995.407837,672.72821 1995.407837,653.529968 1921.891602,653.529968 1921.891602,619.538757 1984.796875,619.538757 
		1984.796875,600.695007 1921.891602,600.695007 1921.891602,568.641296 	"/>
	<polygon points="2051.797607,672.72821 2074.874268,672.72821 2074.874268,592.066589 2117.681641,658.638855 
		2128.476074,658.638855 2171.280029,591.007996 2171.467285,672.72821 2194.356689,672.72821 2194.172852,549.446472 
		2174.258545,549.446472 2123.45166,631.163269 2071.711914,549.446472 2051.797607,549.446472 	"/>
	<path d="M2321.006592,651.065125c-4.779541,2.938477-12.004883,4.402344-21.682861,4.402344
		c-7.815918,0-15.606445-1.259766-23.357666-3.785156c-7.754639-2.522461-14.302734-5.780273-19.633301-9.773438
		l-8.377686,17.788574c5.460205,4.463379,12.872803,8.040527,22.240967,10.741699
		c9.368164,2.698242,19.078613,4.050781,29.127686,4.050781c11.414063,0,21.092285-1.646484,29.03418-4.933105
		c7.938232-3.282715,13.863281-7.688965,17.77124-13.207031s5.86377-11.682129,5.86377-18.491699
		c0-7.98291-2.204346-14.326172-6.609375-19.022461c-4.405029-4.693359-9.706787-8.1875-15.90918-10.480469
		c-6.205811-2.289063-14.144287-4.488281-23.822266-6.601563c-7.073975-1.643066-12.656738-3.110352-16.751953-4.405762
		c-4.095215-1.288086-7.477295-3.049805-10.142578-5.28125c-2.668945-2.228027-4.001709-5.109375-4.001709-8.632324
		c0-5.044434,2.326904-9.095215,6.980469-12.152344c4.65332-3.049316,11.752441-4.578125,21.308105-4.578125
		c5.831299,0,11.846191,0.821777,18.052246,2.464844c6.202148,1.646973,12.159668,4.050781,17.868408,7.222656l7.628662-17.788574
		c-5.582764-3.523438-12.220947-6.221191-19.910645-8.101563c-7.697021-1.876465-15.512939-2.816406-23.451416-2.816406
		c-11.417725,0-21.063232,1.643066-28.94043,4.929688c-7.880615,3.290039-13.773193,7.721191-17.681152,13.296387
		c-3.907959,5.579102-5.860107,11.771973-5.860107,18.581543c0,8.101563,2.200684,14.530762,6.605713,19.284668
		c4.401367,4.753906,9.677979,8.251953,15.819092,10.480469c6.141113,2.231445,14.173096,4.462891,24.099609,6.691406
		c7.073975,1.646484,12.656738,3.11377,16.751953,4.401855c4.095215,1.29541,7.473633,3.082031,10.142578,5.374512
		c2.665283,2.289063,4.001709,5.195313,4.001709,8.714844C2328.170654,644.258972,2325.779053,648.133484,2321.006592,651.065125z"
		/>
	<rect x="2420.687988" y="614.394226" width="579.312073" height="17.691406"/>
	<rect x="655.001648" y="614.394226" width="579.312012" height="17.691406"/>
</g>
</svg>
