<?xml version="1.0" encoding="utf-8"?>
<!-- Generator: Adobe Illustrator 24.0.0, SVG Export Plug-In . SVG Version: 6.00 Build 0)  -->
<svg version="1.1" id="Layer_1" xmlns="http://www.w3.org/2000/svg" xmlns:xlink="http://www.w3.org/1999/xlink" x="0px" y="0px"
	 viewBox="0 0 1993.417725 1520.03833" enable-background="new 0 0 1993.417725 1520.03833" xml:space="preserve">
<g>
	<path d="M1878.204102,0h-107.293335l66.466309,102.160065l-681.56543,1202.170898l-1.633179-2.684204l-63.281738-100.533325
		l5.0625-8.703125L1764.950073,47.582466V0H207.237732h-18.780426h-7.103821h-87.77803L82.960442,19.033018L0,168.450287
		L816.621033,1520.03833h185.681152L107.211578,58.563133c10.859978-0.32542,27.844101-0.731956,44.419891-0.731956
		c16.412445,0,33.069839-19.35844,43.766464-34.893894l874.595459,1424.873169l44.338013,72.227905h95.535034l783.55127-1347.846436
		L1887.430908,13.827389L1878.204102,0z M996.423218,1033.395142L527.974426,284.763153h911.176331L996.423218,1033.395142z"/>
</g>
</svg>
