<?xml version="1.0" encoding="utf-8"?>
<!-- Generator: Adobe Illustrator 24.0.0, SVG Export Plug-In . SVG Version: 6.00 Build 0)  -->
<svg version="1.1" id="Layer_1" xmlns="http://www.w3.org/2000/svg" xmlns:xlink="http://www.w3.org/1999/xlink" x="0px" y="0px"
	 viewBox="0 0 3000 2000" enable-background="new 0 0 3000 2000" xml:space="preserve">
<g id="XMLID_4_">
	<g>
		<polygon fill="#FBFCFC" points="879.631592,702.672913 901.45459,664.160706 947.663879,733.206116 606.042908,1320.854492 
			564.390503,1320.854492 545.059509,1289.36377 581.763489,1225.637695 582.475464,1226.807983 		"/>
		<polygon fill="#A9B0C7" points="897.431763,658.13208 901.45459,664.160706 879.631592,702.672913 850.652893,658.13208 		"/>
		<path fill="#292F4D" d="M512.983582,1108.682617l193.025085-326.396484H308.744415L512.983582,1108.682617z
			 M556.380432,1178.011719l-2.207214,3.794434l27.590271,43.831543l-36.703979,63.726074L163.744186,668.132507
			c3.168427-4.574707,5.162048-8.369141,5.162048-8.369141v-1.631287h679.147827v20.745544L556.380432,1178.011719z"/>
		<polygon fill="#466DCA" points="125.295799,683.665039 515.546814,1320.854492 434.591644,1320.854492 78.552544,731.574829 
			114.722496,666.430298 		"/>
		<path fill="#292F4D" d="M168.906235,658.13208v1.631287c0,0-1.993622,3.794434-5.162048,8.369141l-6.12326-10.000427h3.097229
			H168.906235z"/>
		<path fill="#244AA0" d="M157.620926,658.13208l6.12326,10.000427c-4.663651,6.773315-11.926117,15.213379-19.081787,15.213379
			c-7.226883,0-14.631744,0.177307-19.3666,0.319153l-10.573303-17.234741l4.628044-8.298218H157.620926z"/>
	</g>
</g>
<g>
	<g>
		<path fill="#292F4D" d="M1265.780151,816.563416c-21.28894-19.220581-51.97644-28.830994-92.098022-28.830994
			c-22.428223,0-43.717163,2.872498-63.760132,8.652893c-15.628662,4.539307-29.512695,10.603455-41.616821,18.227722
			l25.91687,45.533875c7.832153-4.929321,16.732178-8.972107,26.664917-12.163574
			c14.80957-4.787537,29.833008-7.163452,45.141113-7.163452c22.463867,0,39.374023,5.106567,50.766235,15.319763
			c11.391846,10.213196,17.088135,24.859253,17.088135,43.938049v4.078064h-70.417603
			c-39.089111,0-67.747437,7.411743-85.939087,22.199524c-18.192017,14.823303-27.305664,34.469421-27.305664,58.97406
			c0,15.674377,4.165405,29.71759,12.495728,42.129395c8.330566,12.447388,20.149902,22.12854,35.458008,29.114624
			c15.308105,6.986206,33.179565,10.461426,53.578491,10.461426s37.843262-3.156006,52.296997-9.432983
			c14.453735-6.312378,25.561035-15.390747,33.393066-27.30603v33.192749h60.200073V903.623962
			C1297.642456,864.828003,1286.998047,835.819519,1265.780151,816.563416z M1233.882446,978.201355
			c-5.090942,13.617676-13.848633,24.078918-26.273193,31.384216c-12.424438,7.340759-26.628906,10.993469-42.613647,10.993469
			c-16.30481,0-29.049805-3.40448-38.234741-10.213196c-9.184814-6.808716-13.777344-15.993591-13.777344-27.589905
			c0-24.149902,18.369873-36.242493,55.073853-36.242493h65.825073V978.201355z"/>
	</g>
	<g>
		<path fill="#292F4D" d="M2630.656738,816.563416c-21.289063-19.220581-51.976318-28.830994-92.098145-28.830994
			c-22.428223,0-43.717041,2.872498-63.76001,8.652893c-15.628662,4.539307-29.512695,10.603455-41.616943,18.227722
			l25.916992,45.533875c7.832031-4.929321,16.732178-8.972107,26.664795-12.163574
			c14.809814-4.787537,29.833252-7.163452,45.141357-7.163452c22.463623,0,39.373779,5.106567,50.766113,15.319763
			c11.391846,10.213196,17.088135,24.859253,17.088135,43.938049v4.078064h-70.417725
			c-39.089111,0-67.747314,7.411743-85.938965,22.199524c-18.191895,14.823303-27.305664,34.469421-27.305664,58.97406
			c0,15.674377,4.165283,29.71759,12.49585,42.129395c8.330566,12.447388,20.149902,22.12854,35.458008,29.114624
			c15.308105,6.986206,33.179443,10.461426,53.578369,10.461426s37.843262-3.156006,52.296875-9.432983
			c14.453857-6.312378,25.561035-15.390747,33.393311-27.30603v33.192749h60.199951V903.623962
			C2662.519043,864.828003,2651.874512,835.819519,2630.656738,816.563416z M2598.759033,978.201355
			c-5.09082,13.617676-13.848633,24.078918-26.273193,31.384216c-12.424561,7.340759-26.628906,10.993469-42.61377,10.993469
			c-16.304688,0-29.049805-3.40448-38.234619-10.213196s-13.777344-15.993591-13.777344-27.589905
			c0-24.149902,18.369873-36.242493,55.07373-36.242493h65.825195V978.201355z"/>
	</g>
	<g>
		<path fill="#292F4D" d="M1514.44873,787.732422v60.747253c-5.446899-1.028381-10.359863-1.524902-14.774292-1.524902
			c-24.848877,0-44.215454,7.234497-58.170776,21.703003c-13.955566,14.46875-20.897461,35.320679-20.897461,62.555847v132.274902
			h-63.795898V790.78241h60.734131v39.824219C1435.878784,802.023926,1468.203857,787.732422,1514.44873,787.732422z"/>
	</g>
	<g>
		<path fill="#292F4D" d="M1785.723389,1036.856201c-6.30127,5.14209-13.207764,9.645874-20.790649,13.582153
			c-21.324585,11.064331-45.959961,16.596436-73.942017,16.596436c-29.761841,0-56.497681-5.922119-80.13623-17.873047
			c-23.674316-11.915283-42.150879-28.511719-55.429688-49.789185c-13.24353-21.242188-19.900757-45.356628-19.900757-72.237183
			c0-26.880432,6.657227-50.88855,19.900757-72.024292c13.278809-21.099976,31.64856-37.590088,55.144897-49.505432
			c23.496094-11.915344,50.303223-17.87323,80.421021-17.87323c28.302368,0,53.151489,5.425903,74.511719,16.312866
			c6.763916,3.475281,12.994019,7.41156,18.690186,11.84436c-11.677002,16.667419-26.593506,37.980347-34.247681,48.973633
			c-5.6604-5.496643-11.926025-10.035706-18.868164-13.58197c-12.388916-6.276917-25.916992-9.433105-40.619873-9.433105
			c-25.098267,0-45.924561,7.730774-62.407593,23.227844c-16.48291,15.497314-24.74231,36.171753-24.74231,62.059326
			c0,25.852234,8.15271,46.562195,24.493164,62.023987c16.304932,15.49707,37.166748,23.263367,62.656738,23.263367
			c14.702881,0,28.230957-3.156189,40.619873-9.468628c6.799805-3.475281,12.994141-7.872559,18.547852-13.298401
			C1756.886963,999.230591,1771.696899,1018.557678,1785.723389,1036.856201z"/>
	</g>
	<g>
		<path fill="#292F4D" d="M2069.493652,928.6604c0-27.908936-5.874023-52.519836-17.622314-73.797363
			c-11.71228-21.277466-28.052734-37.767578-48.950317-49.541138c-20.932861-11.738037-44.642822-17.589478-71.165161-17.589478
			c-26.878174,0-51.015137,5.957886-72.446533,17.87323c-19.366577,10.780518-34.92395,25.35553-46.600952,43.760559
			c0.320435,0.567505,0.640747,1.099304,0.925659,1.66687l-2.990356,1.666626h-0.035645
			c-0.534058,0.886536-1.032593,1.773132-1.566406,2.69519c-12.068604,21.277466-18.085083,45.179138-18.085083,71.740479
			c0,26.880554,6.194458,50.994995,18.618896,72.237183c0.462891,0.815552,0.925659,1.595642,1.424194,2.375916h0.035645
			l2.598755,1.453857c-0.249268,0.46106-0.533936,0.957581-0.818848,1.41864
			c12.139648,18.795044,28.69397,33.618286,49.555664,44.540771c22.784302,11.950928,49.128418,17.873047,79.068481,17.873047
			c23.460449,0,44.536011-3.723511,63.261719-11.206055c18.690186-7.482544,34.176392-18.582275,46.422974-33.19281
			l-34.176514-39.327942c-19.401978,19.752625-44.072998,29.611084-73.977417,29.611084
			c-23.460693,0-43.111938-5.886719-58.918457-17.624756c-15.806641-11.738098-25.59668-27.660706-29.334717-47.732544h213.744507
			C2069.137695,939.369934,2069.493652,933.093262,2069.493652,928.6604z M1854.218506,905.184326
			c3.025879-20.107422,11.641113-36.171753,25.738892-48.264587c14.0979-12.09259,31.363892-18.121277,51.798462-18.121277
			c20.719482,0,38.056885,6.09967,52.012329,18.369507c13.955322,12.270142,22.285645,28.263733,24.991333,48.016357H1854.218506z"
			/>
	</g>
	<g>
		<path fill="#292F4D" d="M2376.582275,907.205444v156.283081h-63.76001V915.397278c0-23.830627-5.625-41.81012-16.839111-53.902771
			c-11.214111-12.057312-27.234131-18.12146-47.953613-18.12146c-23.460693,0-42.008301,7.092468-55.607666,21.206726
			c-13.599365,14.113953-20.39917,34.46936-20.39917,61.030701v137.878052h-63.760254V790.78241h60.698486v35.249634
			c10.537842-12.624573,23.78125-22.128723,39.80127-28.618225c15.949219-6.454163,33.998535-9.681396,54.04126-9.681396
			c34.354492,0,61.90918,10.03595,82.664063,30.107849C2366.187012,837.947388,2376.582275,867.735718,2376.582275,907.205444z"/>
	</g>
	<g>
		<g>
			<path fill="#A9B0C7" d="M1361.936523,1305.266724c-9.042603-2.607666-16.19751-6.060425-21.466309-10.36853l8.08313-17.170288
				c5.148804,3.854492,11.467529,6.999023,18.952637,9.433594c7.483398,2.43811,14.999878,3.653564,22.545776,3.653564
				c9.339844,0,16.315674-1.412842,20.927368-4.249146c4.608276-2.829468,6.916748-6.56958,6.916748-11.220581
				c0-3.397339-1.288086-6.202515-3.862549-8.411987c-2.576172-2.212891-5.838989-3.9375-9.790161-5.187744
				c-3.952881-1.243286-9.341553-2.659668-16.167847-4.249268c-9.583252-2.150635-17.33606-4.304688-23.263672-6.45874
				c-5.927612-2.150635-11.019043-5.5271-15.269165-10.115845c-4.253662-4.588623-6.377808-10.794556-6.377808-18.614258
				c0-6.572998,1.885986-12.550415,5.658081-17.935547c3.773926-5.381714,9.459839-9.658691,17.06665-12.834351
				c7.603271-3.172241,16.913696-4.758423,27.934448-4.758423c7.662476,0,15.206665,0.907349,22.634399,2.718628
				c7.424316,1.814697,13.831665,4.418945,19.222046,7.819702l-7.365112,17.170166
				c-5.510376-3.061401-11.258911-5.381592-17.245605-6.971191c-5.990234-1.586182-11.797852-2.37915-17.426514-2.37915
				c-9.223389,0-16.077515,1.47522-20.567505,4.418945c-4.491821,2.950562-6.737671,6.860474-6.737671,11.729614
				c0,3.400757,1.286377,6.181641,3.862549,8.332275c2.574341,2.154053,5.838867,3.854492,9.790039,5.097656
				c3.952881,1.250244,9.341675,2.666626,16.167969,4.252808c9.341553,2.039795,17.004028,4.162598,22.994141,6.37207
				c5.986694,2.213013,11.107788,5.58606,15.359619,10.115845c4.250122,4.533203,6.377808,10.656128,6.377808,18.361572
				c0,6.572998-1.885986,12.522705-5.659912,17.848999c-3.772095,5.326294-9.492798,9.578979-17.155273,12.747681
				c-7.665894,3.172241-17.007446,4.761841-28.023071,4.761841
				C1380.350342,1309.176636,1370.979126,1307.871094,1361.936523,1305.266724z"/>
		</g>
		<g>
			<path fill="#A9B0C7" d="M1544.002441,1265.48584v41.990356h-23.352295v-41.651001l-49.402466-77.345581h24.968872
				l36.827637,57.965942l37.185669-57.965942h22.994263L1544.002441,1265.48584z"/>
		</g>
		<g>
			<path fill="#A9B0C7" d="M1645.049683,1305.266724c-9.042603-2.607666-16.19751-6.060425-21.468018-10.36853l8.086548-17.170288
				c5.145386,3.854492,11.46582,6.999023,18.950928,9.433594c7.481689,2.43811,15.001587,3.653564,22.545776,3.653564
				c9.341675,0,16.315674-1.412842,20.929077-4.249146c4.606567-2.829468,6.915039-6.56958,6.915039-11.220581
				c0-3.397339-1.289917-6.202515-3.862549-8.411987c-2.576172-2.212891-5.837158-3.9375-9.790039-5.187744
				c-3.953003-1.243286-9.341675-2.659668-16.169678-4.249268c-9.581543-2.150635-17.334351-4.304688-23.261963-6.45874
				c-5.927612-2.150635-11.020752-5.5271-15.269165-10.115845c-4.251953-4.588623-6.376099-10.794556-6.376099-18.614258
				c0-6.572998,1.884277-12.550415,5.656372-17.935547c3.772217-5.381714,9.459839-9.658691,17.06665-12.834351
				c7.603271-3.172241,16.913696-4.758423,27.934448-4.758423c7.662476,0,15.206665,0.907349,22.636108,2.718628
				c7.422607,1.814697,13.829956,4.418945,19.218628,7.819702l-7.363403,17.170166
				c-5.510376-3.061401-11.260742-5.381592-17.247437-6.971191c-5.990112-1.586182-11.796021-2.37915-17.424683-2.37915
				c-9.223389,0-16.075806,1.47522-20.567505,4.418945c-4.491821,2.950562-6.737671,6.860474-6.737671,11.729614
				c0,3.400757,1.286377,6.181641,3.862549,8.332275c2.572632,2.154053,5.837158,3.854492,9.790039,5.097656
				c3.952881,1.250244,9.341675,2.666626,16.169678,4.252808c9.341553,2.039795,17.004028,4.162598,22.994141,6.37207
				c5.986816,2.213013,11.104248,5.58606,15.356201,10.115845c4.251831,4.533203,6.379517,10.656128,6.379517,18.361572
				c0,6.572998-1.887817,12.522705-5.659912,17.848999s-9.491089,9.578979-17.153442,12.747681
				c-7.665894,3.172241-17.007568,4.761841-28.024902,4.761841
				C1663.46521,1309.176636,1654.092285,1307.871094,1645.049683,1305.266724z"/>
		</g>
		<g>
			<path fill="#A9B0C7" d="M1799.271484,1207.177002h-41.67395v-18.697388h106.703735v18.697388h-41.67395v100.299194h-23.355835
				V1207.177002z"/>
		</g>
		<g>
			<path fill="#A9B0C7" d="M2004.599365,1288.945068v18.531128h-94.313232v-118.996582h91.796143v18.52771h-68.443726v30.939697
				h60.71875v18.188354h-60.71875v32.809692H2004.599365z"/>
		</g>
		<g>
			<path fill="#A9B0C7" d="M2174.538818,1307.476196l-0.180664-78.879639l-41.315918,65.280029h-10.419434l-41.319336-64.258423
				v77.858032h-22.274658v-118.996582h19.222168l49.941406,78.876221l49.040771-78.876221h19.222168l0.177246,118.996582
				H2174.538818z"/>
		</g>
		<g>
			<path fill="#A9B0C7" d="M2269.835693,1305.266724c-9.04248-2.607666-16.197266-6.060425-21.467773-10.36853l8.086426-17.170288
				c5.145508,3.854492,11.46582,6.999023,18.950928,9.433594c7.481689,2.43811,15.001465,3.653564,22.545654,3.653564
				c9.341797,0,16.315674-1.412842,20.929199-4.249146c4.606445-2.829468,6.915039-6.56958,6.915039-11.220581
				c0-3.397339-1.289795-6.202515-3.862549-8.411987c-2.576172-2.212891-5.837158-3.9375-9.790039-5.187744
				c-3.952881-1.243286-9.341797-2.659668-16.169678-4.249268c-9.581543-2.150635-17.334229-4.304688-23.261963-6.45874
				c-5.92749-2.150635-11.020752-5.5271-15.269287-10.115845c-4.251709-4.588623-6.375977-10.794556-6.375977-18.614258
				c0-6.572998,1.884277-12.550415,5.656494-17.935547c3.771973-5.381714,9.459717-9.658691,17.06665-12.834351
				c7.603271-3.172241,16.913574-4.758423,27.934326-4.758423c7.662354,0,15.206543,0.907349,22.63623,2.718628
				c7.422363,1.814697,13.829834,4.418945,19.218506,7.819702l-7.363525,17.170166
				c-5.510254-3.061401-11.260498-5.381592-17.247314-6.971191c-5.990234-1.586182-11.796143-2.37915-17.424561-2.37915
				c-9.223633,0-16.075928,1.47522-20.567627,4.418945c-4.491699,2.950562-6.737549,6.860474-6.737549,11.729614
				c0,3.400757,1.286133,6.181641,3.862305,8.332275c2.572754,2.154053,5.837158,3.854492,9.790283,5.097656
				c3.952881,1.250244,9.341553,2.666626,16.169434,4.252808c9.341797,2.039795,17.00415,4.162598,22.994385,6.37207
				c5.986572,2.213013,11.104248,5.58606,15.355957,10.115845c4.251953,4.533203,6.379639,10.656128,6.379639,18.361572
				c0,6.572998-1.887695,12.522705-5.659912,17.848999c-3.771973,5.326294-9.490967,9.578979-17.153564,12.747681
				c-7.665771,3.172241-17.007568,4.761841-28.024902,4.761841
				C2288.251465,1309.176636,2278.878418,1307.871094,2269.835693,1305.266724z"/>
		</g>
	</g>
	<g>
		<rect x="710.786255" y="1251.169922" fill="#A9B0C7" width="559.174927" height="17.076189"/>
	</g>
	<g>
		<rect x="2415.09668" y="1251.169922" fill="#A9B0C7" width="559.174927" height="17.076189"/>
	</g>
</g>
</svg>
