<?xml version="1.0" encoding="utf-8"?>
<!-- Generator: Adobe Illustrator 24.0.0, SVG Export Plug-In . SVG Version: 6.00 Build 0)  -->
<svg version="1.1" id="Layer_1" xmlns="http://www.w3.org/2000/svg" xmlns:xlink="http://www.w3.org/1999/xlink" x="0px" y="0px"
	 viewBox="0 0 1024 1024" enable-background="new 0 0 1024 1024" xml:space="preserve">
<rect fill="#292F4D" width="1024" height="1024"/>
<g id="XMLID_5_">
	<g>
		<polygon fill="#FBFCFC" points="943.499512,173.020035 969.191284,127.504173 1023.592346,209.105804 621.409912,903.620789 
			572.373474,903.620789 549.61554,866.403381 592.826294,791.088501 593.66449,792.471558 		"/>
		<polygon fill="#A9B0C7" points="964.455261,120.379227 969.191284,127.504173 943.499512,173.020035 909.383606,120.379227 		"/>
		<path fill="#FDFDFE" d="M511.853302,652.864441L739.09729,267.111267H271.407196L511.853302,652.864441z M562.94342,734.801392
			l-2.598511,4.484497l32.481384,51.802612l-43.210754,75.31488L100.70179,132.198257
			c3.730125-5.406578,6.077164-9.891106,6.077164-9.891106v-1.927925h799.545105v24.518204L562.94342,734.801392z"/>
		<polygon fill="#466DCA" points="55.437405,150.555481 514.870911,903.620789 419.56424,903.620789 0.407643,207.177887 
			42.989697,130.186508 		"/>
		<path fill="#FDFDFE" d="M106.778954,120.379227v1.927925c0,0-2.347038,4.484528-6.077164,9.891106l-7.208771-11.819031h3.646294
			H106.778954z"/>
		<path fill="#244AA0" d="M93.493019,120.379227l7.208771,11.819031c-5.490402,8.005096-14.040344,17.980026-22.464546,17.980026
			c-8.508026,0-17.225616,0.209549-22.799839,0.377197l-12.447708-20.368973l5.44849-9.807281H93.493019z"/>
	</g>
</g>
</svg>
