<?xml version="1.0" encoding="utf-8"?>
<!-- Generator: Adobe Illustrator 24.0.0, SVG Export Plug-In . SVG Version: 6.00 Build 0)  -->
<svg version="1.1" id="Layer_1" xmlns="http://www.w3.org/2000/svg" xmlns:xlink="http://www.w3.org/1999/xlink" x="0px" y="0px"
	 viewBox="0 0 2000 457.725616" enable-background="new 0 0 2000 457.725616" xml:space="preserve">
<g>
	<g>
		<g id="XMLID_8_">
			<g>
				<polygon fill="#292F4D" points="553.285095,30.763237 568.357666,4.163814 600.273254,51.851727 364.32428,457.725616 
					335.556,457.725616 322.20459,435.9758 347.555084,391.961823 348.046844,392.770111 				"/>
				<polygon fill="#A9B0C7" points="565.579224,0 568.357666,4.163814 553.285095,30.763237 533.270203,0 				"/>
				<path fill="#292F4D" d="M300.050568,311.183838L433.368134,85.750069H158.987701L300.050568,311.183838z M330.023651,359.067719
					l-1.524475,2.620728l19.055908,30.273376L322.20459,435.9758L58.83971,6.907032
					c2.188354-3.1596,3.5653-5.780354,3.5653-5.780354V0h469.070282v14.328418L330.023651,359.067719z"/>
				<polygon fill="#466DCA" points="32.284389,17.634975 301.820923,457.725616 245.907211,457.725616 0,50.725048 
					24.981674,5.731367 				"/>
				<path fill="#292F4D" d="M62.40501,0v1.126679c0,0-1.376945,2.620753-3.5653,5.780354L54.610531,0h2.139179H62.40501z"/>
				<path fill="#244AA0" d="M54.610531,0l4.229179,6.907032c-3.221062,4.678167-8.237068,10.507507-13.179306,10.507507
					c-4.991417,0-10.105778,0.122465-13.376015,0.220436L24.981674,5.731367L28.178148,0H54.610531z"/>
			</g>
		</g>
		<g>
			<g>
				<g>
					<path fill="#292F4D" d="M819.988159,109.424545c-14.703735-13.275177-35.898804-19.912842-63.609863-19.912842
						c-15.49054,0-30.194275,1.983932-44.037476,5.976303c-10.794312,3.135185-20.383667,7.32354-28.743713,12.589455
						l17.900208,31.449104c5.409424-3.404572,11.556519-6.196808,18.416687-8.401093
						c10.228699-3.306641,20.60498-4.947632,31.177917-4.947632c15.515198,0,27.194641,3.526993,35.062866,10.580994
						c7.868164,7.054016,11.802368,17.169647,11.802368,30.346893v2.81662h-48.635681
						c-26.997864,0-46.791382,5.119095-59.355957,15.332642c-12.564697,10.238068-18.859253,23.807159-18.859253,40.731918
						c0,10.825867,2.876892,20.525162,8.630493,29.097717c5.753723,8.597076,13.917053,15.28363,24.489929,20.108673
						c10.572937,4.825195,22.916321,7.225464,37.00531,7.225464c14.08905,0,26.137329-2.179749,36.120178-6.515076
						c9.982849-4.359833,17.654358-10.630035,23.063782-18.85965v22.925446h41.578674V169.555038
						C841.994629,142.759659,834.642761,122.724236,819.988159,109.424545z M797.957153,221.063782
						c-3.516113,9.40538-9.56488,16.630707-18.146179,21.67627c-8.581238,5.070068-18.391968,7.592926-29.43219,7.592926
						c-11.261353,0-20.063965-2.351379-26.407776-7.054001c-6.343689-4.702621-9.515625-11.046387-9.515625-19.055649
						c0-16.679733,12.687622-25.031799,38.038086-25.031799h45.463684V221.063782z"/>
				</g>
				<g>
					<path fill="#292F4D" d="M1762.67395,109.424545c-14.703735-13.275177-35.898804-19.912842-63.609863-19.912842
						c-15.490601,0-30.194336,1.983932-44.037476,5.976303c-10.794312,3.135185-20.383667,7.32354-28.743774,12.589455
						l17.900269,31.449104c5.409424-3.404572,11.556519-6.196808,18.416748-8.401093
						c10.228638-3.306641,20.60498-4.947632,31.177856-4.947632c15.515137,0,27.19458,3.526993,35.062866,10.580994
						c7.868164,7.054016,11.802368,17.169647,11.802368,30.346893v2.81662h-48.63562
						c-26.997925,0-46.791382,5.119095-59.355957,15.332642c-12.564819,10.238068-18.859375,23.807159-18.859375,40.731918
						c0,10.825867,2.876953,20.525162,8.630493,29.097717c5.753784,8.597076,13.917114,15.28363,24.48999,20.108673
						c10.572876,4.825195,22.91626,7.225464,37.005249,7.225464c14.089111,0,26.137451-2.179749,36.120239-6.515076
						c9.982788-4.359833,17.654297-10.630035,23.063843-18.85965v22.925446h41.578613V169.555038
						C1784.68042,142.759659,1777.328613,122.724236,1762.67395,109.424545z M1740.642944,221.063782
						c-3.516113,9.40538-9.564941,16.630707-18.146118,21.67627c-8.581299,5.070068-18.391968,7.592926-29.432251,7.592926
						c-11.261353,0-20.063965-2.351379-26.407837-7.054001c-6.343628-4.702621-9.515625-11.046387-9.515625-19.055649
						c0-16.679733,12.687622-25.031799,38.038086-25.031799h45.463745V221.063782z"/>
				</g>
				<g>
					<path fill="#292F4D" d="M991.737244,89.511703v41.956558c-3.762085-0.710236-7.155273-1.053177-10.204224-1.053177
						c-17.162537,0-30.538574,4.996674-40.177124,14.989716c-9.638672,9.993195-14.433289,24.395111-14.433289,43.205734v91.358948
						h-44.062256V91.618217h41.947571v27.505615C937.470947,99.382469,959.797119,89.511703,991.737244,89.511703z"/>
				</g>
				<g>
					<path fill="#292F4D" d="M1179.099854,261.575195c-4.352173,3.551514-9.122314,6.66217-14.359619,9.380859
						c-14.728394,7.641815-31.743408,11.462708-51.069946,11.462708c-20.555664,0-39.021484-4.090271-55.348022-12.344421
						c-16.351196-8.229614-29.112549-19.692337-38.283936-34.388153c-9.146912-14.671432-13.744873-31.32666-13.744873-49.89241
						c0-18.565613,4.597961-35.14743,13.744873-49.745331c9.171387-14.573227,21.858887-25.96254,38.087158-34.192162
						s34.743286-12.344582,55.5448-12.344582c19.547729,0,36.710449,3.747505,51.463379,11.266884
						c4.671753,2.400269,8.974609,5.118958,12.908936,8.180588c-8.065063,11.511749-18.367554,26.232079-23.654053,33.824852
						c-3.909546-3.796387-8.237061-6.931412-13.03186-9.380722c-8.556641-4.335312-17.900146-6.515221-28.055054-6.515221
						c-17.334717,0-31.718994,5.339455-43.103271,16.0429c-11.384399,10.703583-17.088867,24.98291-17.088867,42.862793
						c0,17.855499,5.630737,32.159348,16.916626,42.838409c11.261475,10.703445,25.670166,16.067429,43.275513,16.067429
						c10.154907,0,19.498413-2.179916,28.055054-6.539749c4.696533-2.400269,8.974854-5.437378,12.810547-9.184891
						C1159.183228,235.588135,1169.411987,248.936859,1179.099854,261.575195z"/>
				</g>
				<g>
					<path fill="#292F4D" d="M1375.092773,186.847107c0-19.276001-4.057007-36.27417-12.171265-50.969971
						c-8.089478-14.695824-19.375366-26.085136-33.808838-34.216835c-14.457764-8.107185-30.833618-12.148598-49.151855-12.148598
						c-18.564209,0-35.234863,4.11496-50.037109,12.344582c-13.375977,7.445824-24.121094,17.512421-32.186035,30.224312
						c0.221313,0.391968,0.442505,0.759277,0.639282,1.151245l-2.065308,1.151093h-0.024658
						c-0.368896,0.612335-0.713135,1.224655-1.081909,1.861496c-8.335449,14.695816-12.490845,31.204086-12.490845,49.549347
						c0,18.56575,4.27832,35.220978,12.859619,49.89241c0.319702,0.563293,0.639282,1.102081,0.983521,1.640991h0.024658
						l1.794922,1.00415c-0.172119,0.31842-0.368774,0.661362-0.565552,0.979782
						c8.384521,12.981277,19.818237,23.219345,34.226929,30.763229c15.73645,8.25415,33.931763,12.344421,54.610474,12.344421
						c16.203613,0,30.76001-2.571716,43.693237-7.739716c12.908936-5.167999,23.604858-12.83432,32.063232-22.92543
						l-23.604858-27.162827c-13.400391,13.642624-30.440063,20.451614-51.094238,20.451614
						c-16.203735,0-29.776367-4.065781-40.693604-12.172974c-10.917236-8.107178-17.678955-19.104523-20.260742-32.967651h147.62793
						C1374.846924,194.243896,1375.092773,189.908737,1375.092773,186.847107z M1226.407593,170.632736
						c2.089966-13.88765,8.040283-24.98291,17.777344-33.335114c9.736938-8.352066,21.662231-12.515907,35.775879-12.515907
						c14.310303,0,26.28479,4.212883,35.923462,12.68737c9.638672,8.47464,15.392212,19.521011,17.260864,33.163651H1226.407593z"/>
				</g>
				<g>
					<path fill="#292F4D" d="M1587.191162,172.028702v107.940781h-44.037598V177.686584
						c0-16.459244-3.884888-28.877213-11.630249-37.229279c-7.745239-8.327682-18.809937-12.516045-33.120361-12.516045
						c-16.203735,0-29.01416,4.898613-38.40686,14.646935c-9.3927,9.748169-14.089111,23.807144-14.089111,42.15239v95.228897
						h-44.037598V91.618217h41.922974v24.346069c7.278198-8.719505,16.424927-15.283768,27.489624-19.765884
						c11.015747-4.457748,23.481934-6.686699,37.324951-6.686699c23.727783,0,42.759033,6.931572,57.094116,20.794701
						C1580.011353,124.193909,1587.191162,144.76796,1587.191162,172.028702z"/>
				</g>
				<g>
					<g>
						<path fill="#A9B0C7" d="M886.400879,446.959595c-6.245483-1.801086-11.187134-4.185822-14.826172-7.161346l5.582764-11.859009
							c3.556213,2.66217,7.920349,4.834015,13.090149,6.515503c5.168579,1.683899,10.359985,2.523468,15.571777,2.523468
							c6.450806,0,11.268799-0.975891,14.453979-2.934875c3.1828-1.954163,4.777222-4.537415,4.777222-7.749725
							c0-2.346466-0.889648-4.283905-2.667725-5.809937c-1.779297-1.528412-4.032837-2.719574-6.76178-3.583038
							c-2.730164-0.858704-6.452026-1.836975-11.166809-2.934875c-6.618896-1.485352-11.973572-2.973114-16.067566-4.460876
							c-4.094055-1.485382-7.610596-3.817474-10.546082-6.986725c-2.937866-3.169281-4.405029-7.455536-4.405029-12.856445
							c0-4.539825,1.302673-8.668243,3.907959-12.387634c2.606506-3.71701,6.533691-6.671021,11.787476-8.86438
							c5.251465-2.190979,11.681824-3.286469,19.29364-3.286469c5.292236,0,10.502869,0.626678,15.632996,1.877655
							c5.127747,1.253357,9.553162,3.052063,13.276245,5.400909l-5.086975,11.859009
							c-3.805908-2.114441-7.776245-3.71701-11.911133-4.81488c-4.137268-1.09549-8.148438-1.64325-12.036011-1.64325
							c-6.370361,0-11.104309,1.018951-14.205444,3.052063c-3.102356,2.037903-4.653564,4.738342-4.653564,8.101349
							c0,2.348846,0.888489,4.269562,2.667725,5.754913c1.778137,1.487762,4.032837,2.66217,6.76178,3.520874
							c2.730164,0.863464,6.452026,1.841766,11.166809,2.937256c6.452026,1.408813,11.744263,2.875061,15.88147,4.401093
							c4.134888,1.528412,7.671875,3.858124,10.608521,6.986725c2.935486,3.130981,4.404968,7.359863,4.404968,12.681824
							c0,4.539825-1.302612,8.649109-3.909119,12.32785c-2.605286,3.678741-6.556458,6.615967-11.848694,8.804565
							c-5.294678,2.190979-11.746704,3.288849-19.354858,3.288849
							C899.118835,449.660034,892.646423,448.758301,886.400879,446.959595z"/>
					</g>
					<g>
						<path fill="#A9B0C7" d="M1012.149231,419.483887v29.00174h-16.128845v-28.767334l-34.121033-53.420624h17.245422
							l25.435852,40.035553l25.683167-40.035553h15.881592L1012.149231,419.483887z"/>
					</g>
					<g>
						<path fill="#A9B0C7" d="M1081.940063,446.959595c-6.245605-1.801086-11.187256-4.185822-14.827393-7.161346
							l5.585083-11.859009c3.553833,2.66217,7.919189,4.834015,13.088989,6.515503
							c5.167358,1.683899,10.361206,2.523468,15.571777,2.523468c6.452026,0,11.268799-0.975891,14.4552-2.934875
							c3.181519-1.954163,4.776001-4.537415,4.776001-7.749725c0-2.346466-0.890869-4.283905-2.667725-5.809937
							c-1.779297-1.528412-4.031616-2.719574-6.761841-3.583038c-2.730103-0.858704-6.452026-1.836975-11.167969-2.934875
							c-6.617676-1.485352-11.97229-2.973114-16.066406-4.460876c-4.093994-1.485382-7.611816-3.817474-10.546021-6.986725
							c-2.936646-3.169281-4.403809-7.455536-4.403809-12.856445c0-4.539825,1.301392-8.668243,3.906738-12.387634
							c2.605347-3.71701,6.533691-6.671021,11.787476-8.86438c5.251465-2.190979,11.681885-3.286469,19.293579-3.286469
							c5.292236,0,10.50293,0.626678,15.634277,1.877655c5.126587,1.253357,9.55188,3.052063,13.273804,5.400909
							l-5.085693,11.859009c-3.805908-2.114441-7.777588-3.71701-11.912354-4.81488
							c-4.137329-1.09549-8.147339-1.64325-12.03479-1.64325c-6.370483,0-11.103149,1.018951-14.205566,3.052063
							c-3.102295,2.037903-4.653442,4.738342-4.653442,8.101349c0,2.348846,0.888428,4.269562,2.667725,5.754913
							c1.776855,1.487762,4.031616,2.66217,6.761719,3.520874c2.730225,0.863464,6.452026,1.841766,11.167969,2.937256
							c6.452026,1.408813,11.744263,2.875061,15.881592,4.401093c4.134766,1.528412,7.669312,3.858124,10.606079,6.986725
							c2.936646,3.130981,4.406128,7.359863,4.406128,12.681824c0,4.539825-1.303833,8.649109-3.90918,12.32785
							c-2.605225,3.678741-6.555176,6.615967-11.847412,8.804565c-5.294678,2.190979-11.746704,3.288849-19.356079,3.288849
							C1094.65918,449.660034,1088.185547,448.758301,1081.940063,446.959595z"/>
					</g>
					<g>
						<path fill="#A9B0C7" d="M1188.457153,379.211517h-28.783203v-12.913849h73.697632v12.913849h-28.783203v69.274109h-16.131226
							V379.211517z"/>
					</g>
					<g>
						<path fill="#A9B0C7" d="M1330.271851,435.686584v12.799042h-65.139648v-82.187958h63.401245v12.796631h-47.272461v21.369202
							h41.93689v12.562256h-41.93689v22.660828H1330.271851z"/>
					</g>
					<g>
						<path fill="#A9B0C7" d="M1447.644775,448.485626l-0.124878-54.480225l-28.535767,45.08725h-7.196411l-28.538208-44.381653
							v53.774628h-15.384521v-82.187958h13.276245l34.493164,54.477844l33.871338-54.477844h13.276245l0.122437,82.187958
							H1447.644775z"/>
					</g>
					<g>
						<path fill="#A9B0C7" d="M1513.463989,446.959595c-6.245483-1.801086-11.187134-4.185822-14.827393-7.161346
							l5.585205-11.859009c3.553833,2.66217,7.919189,4.834015,13.088989,6.515503
							c5.167358,1.683899,10.361084,2.523468,15.571655,2.523468c6.452026,0,11.268921-0.975891,14.4552-2.934875
							c3.181641-1.954163,4.776001-4.537415,4.776001-7.749725c0-2.346466-0.890747-4.283905-2.667725-5.809937
							c-1.779297-1.528412-4.031616-2.719574-6.761719-3.583038c-2.730225-0.858704-6.452026-1.836975-11.167969-2.934875
							c-6.617676-1.485352-11.972412-2.973114-16.066406-4.460876c-4.094116-1.485382-7.611816-3.817474-10.546143-6.986725
							c-2.936646-3.169281-4.403687-7.455536-4.403687-12.856445c0-4.539825,1.301392-8.668243,3.906738-12.387634
							c2.605225-3.71701,6.533569-6.671021,11.787476-8.86438c5.251343-2.190979,11.681763-3.286469,19.293579-3.286469
							c5.292236,0,10.502808,0.626678,15.634155,1.877655c5.126587,1.253357,9.552002,3.052063,13.273926,5.400909
							l-5.085815,11.859009c-3.805908-2.114441-7.777466-3.71701-11.912354-4.81488
							c-4.137207-1.09549-8.147217-1.64325-12.03479-1.64325c-6.370361,0-11.103149,1.018951-14.205444,3.052063
							c-3.102417,2.037903-4.653564,4.738342-4.653564,8.101349c0,2.348846,0.888428,4.269562,2.667725,5.754913
							c1.776855,1.487762,4.031616,2.66217,6.761841,3.520874c2.730103,0.863464,6.452026,1.841766,11.167969,2.937256
							c6.452026,1.408813,11.744263,2.875061,15.88147,4.401093c4.134888,1.528412,7.669434,3.858124,10.606079,6.986725
							c2.936646,3.130981,4.40625,7.359863,4.40625,12.681824c0,4.539825-1.303833,8.649109-3.90918,12.32785
							s-6.555298,6.615967-11.847534,8.804565c-5.294556,2.190979-11.746582,3.288849-19.356079,3.288849
							C1526.183105,449.660034,1519.709473,448.758301,1513.463989,446.959595z"/>
					</g>
				</g>
				<g>
					<rect x="1613.791992" y="409.596252" fill="#A9B0C7" width="386.207977" height="11.794092"/>
				</g>
			</g>
			<g>
				<rect x="436.667847" y="409.596252" fill="#A9B0C7" width="386.207977" height="11.794092"/>
			</g>
		</g>
	</g>
</g>
</svg>
